# xmcd
#
# Track frame offsets:
#	182
#	23297
#	39572
#	54460
#	70607
#	86075
#	109702
#	122812
#	137612
#	150522
#
# Disc length: 2340 seconds
#
# Revision: 2
# Processed by: cddbd v1.5.1PL0 Copyright (c) Steve Scherf et al.
# Submitted via: dBpowerAMP V4.0
#
DISCID=7409220a
DTITLE=RayStevens,AKAHaroldRayRagsdale,Clarkdale,GA - GreatestHits;RCABG2-05153
DYEAR=1983
DGENRE=Comedy
TTITLE0=DoorightFamily,The[comedy](1983,RayStevens,AKAHaroldRayRagsdale,Clarkdale,GA)
TTITLE1=Ahab,TheArab[comedy](1983,RayStevens,AKAHaroldRayRagsdale,Clarkdale,GA)
TTITLE2=Streak,The[comedy](1983,RayStevens,AKAHaroldRayRagsdale,Clarkdale,GA)
TTITLE3=EverythingIsBeautiful[comedy](1983,RayStevens,AKAHaroldRayRagsdale,Clarkdale,GA)
TTITLE4=MisterBusinessman[comedy](1983,RayStevens,AKAHaroldRayRagsdale,Clarkdale,GA)
TTITLE5=MoonlightSpecial,The[comedy](1983,RayStevens,AKAHaroldRayRagsdale,Clarkdale,GA)
TTITLE6=Misty[comedy](ErrolGarner,JohnnyBurke;1983,RayStevens,AKAHaroldRayRagsdale,Clarkdale,GA)
TTITLE7=Gitarzan[comedy](RStevens,BEverette;1983,RayStevens,AKAHaroldRayRagsdale,Clarkdale,GA)
TTITLE8=FreddieFeelgood{AndHisFunkyLittleFive-PieceBand}[comedy](1983,RayStevens,AKAHaroldRayRagsdale,Clarkdale,GA)
TTITLE9=Shriner'sConvention[comedy](1983,RayStevens,AKAHaroldRayRagsdale,Clarkdale,GA)
EXTD=(c) 1983 BMG Music\nmore info\nMillenniumMusicProjectFormat, syntax as follows:\nTitle{Subtitle}[info](Lyricist;Composer;Date,Artist,Location)[info]\ncorrections to: windking3@yahoo.com\n\n
EXTT0=
EXTT1=
EXTT2=
EXTT3=
EXTT4=
EXTT5=
EXTT6=
EXTT7=
EXTT8=
EXTT9=
PLAYORDER=
